<svg xmlns="http://www.w3.org/2000/svg" viewBox="0 0 160 88" fill="none">
<defs><linearGradient id="gold" x1="36" y1="10" x2="122" y2="59" gradientUnits="userSpaceOnUse"><stop stop-color="#fff0b2"/><stop offset=".48" stop-color="#eec75d"/><stop offset="1" stop-color="#a9812e"/></linearGradient><linearGradient id="body" x1="80" y1="20" x2="80" y2="58" gradientUnits="userSpaceOnUse"><stop stop-color="#29272a"/><stop offset="1" stop-color="#090a0d"/></linearGradient></defs>
<path d="M30 35 42 30 50 14Q52 10 58 10H102Q108 10 110 14L118 30 130 35" stroke="url(#gold)" stroke-width="2.4" stroke-linecap="round" stroke-linejoin="round"/>
<path d="m50 29 6-13h48l6 13c-20-3-40-3-60 0Z" fill="#10151c" stroke="#d9b558" stroke-width="1.2"/>
<path d="M38 32Q80 24 122 32L130 40V53Q130 57 126 57H34Q30 57 30 53V40Z" fill="url(#body)" stroke="url(#gold)" stroke-width="2"/>
<path d="m38 37 24 4-3 6-21-3Z" fill="#fae7a8"/><path d="m122 37-24 4 3 6 21-3Z" fill="#fae7a8"/>
<path d="M69 41h22l-3 9H72Z" fill="#08090b" stroke="#cda747"/>
<path d="M36 52h27l6 3h22l6-3h27" stroke="#dc2345" stroke-width="3" stroke-linecap="round"/>
<path d="M36 58v4h14v-4m60 0v4h14v-4" fill="#dc2345"/>
<path d="M25 31h9m92 0h9" stroke="#dc2345" stroke-width="3" stroke-linecap="round"/>
<text x="80" y="81" text-anchor="middle" font-family="Arial,Helvetica,sans-serif" font-size="14" font-weight="800" letter-spacing="2"><tspan fill="#f2cf70">AUTO</tspan><tspan fill="#ec2444"> NEXA</tspan></text>
</svg>